<?xml version="1.0" encoding="iso-8859-1"?>
<svg width="21" height="20" viewBox="0 0 21 20" fill="none" xmlns="http://www.w3.org/2000/svg">
<path d="M7.70356 7.36464L5.34829 6.12874L6.86751 5.65962C7.12092 5.58137 7.33286 5.40566 7.45672 5.17114C7.58058 4.93662 7.6062 4.66251 7.52795 4.4091C7.4497 4.15569 7.27399 3.94374 7.03947 3.81988C6.80495 3.69603 6.53084 3.6704 6.27743 3.74865L1.5 5.22386L2.97521 10.0013C3.05346 10.2547 3.22917 10.4666 3.46369 10.5905C3.69821 10.7144 3.97232 10.74 4.22573 10.6617C4.47914 10.5835 4.69109 10.4078 4.81495 10.1732C4.93881 9.93873 4.96443 9.66461 4.88618 9.4112L4.41706 7.89198L6.76573 9.14039C7.00121 9.26475 7.27645 9.29048 7.53089 9.21191C7.78534 9.13334 7.99816 8.95691 8.12252 8.72143C8.24688 8.48595 8.27261 8.21071 8.19404 7.95626C8.11547 7.70182 7.93904 7.489 7.70356 7.36464Z" fill="#0F1111"/>
<path fill-rule="evenodd" clip-rule="evenodd" d="M10.6461 4.31954C11.1405 4.05912 11.7212 4.01736 12.2477 4.20438L16.6694 5.77498C17.4671 6.05831 18 6.81313 18 7.65962V12.9108C18 13.5879 17.6574 14.219 17.0895 14.5879L13.0492 17.2127C12.1216 17.8153 10.9376 17.8586 9.96852 17.3253L6.03577 15.1611C5.39689 14.8095 5 14.1381 5 13.4089V10.9536C5 10.4013 5.44772 9.95361 6 9.95361C6.55228 9.95361 7 10.4013 7 10.9536V13.4089L10.5 15.3349V11.1054L9.03642 10.3397C8.54707 10.0836 8.35792 9.47939 8.61394 8.99003C8.86997 8.50068 9.47422 8.31153 9.96358 8.56755L11.451 9.34576L14.7803 7.22636L11.5783 6.08902L9.96609 6.93835C9.47746 7.19576 8.87267 7.00832 8.61526 6.5197C8.35785 6.03107 8.54529 5.42628 9.03391 5.16887L10.6461 4.31954ZM16 8.82075L12.5 11.0488V15.1845L16 12.9108V8.82075Z" fill="#0F1111"/>
</svg>
