<?xml version="1.0" encoding="iso-8859-1"?>
<svg width="20" height="20" viewBox="0 0 20 20" fill="none" xmlns="http://www.w3.org/2000/svg">
<path fill-rule="evenodd" clip-rule="evenodd" d="M3 9.51109V14.8611H13.9198V9.51109H3ZM2 7.51109C1.44772 7.51109 1 7.9588 1 8.51108V15.8611C1 16.4134 1.44771 16.8611 2 16.8611H14.9198C15.4721 16.8611 15.9198 16.4134 15.9198 15.8611V8.51109C15.9198 7.9588 15.4721 7.51109 14.9198 7.51109H2Z" fill="#0F1111"/>
<path fill-rule="evenodd" clip-rule="evenodd" d="M6.46259 12.0174C6.46259 10.9543 7.29839 10.0174 8.42001 10.0174C9.54162 10.0174 10.3774 10.9543 10.3774 12.0174C10.3774 13.0805 9.54162 14.0174 8.42001 14.0174C7.29839 14.0174 6.46259 13.0805 6.46259 12.0174Z" fill="#0F1111"/>
<path fill-rule="evenodd" clip-rule="evenodd" d="M5 5.5C5 4.39543 5.89543 3.5 7 3.5H16.9999C18.1045 3.5 18.9999 4.39543 18.9999 5.5V10.5C18.9999 11.6046 18.1045 12.5 16.9999 12.5L16.9999 5.5H7V6.5H5V5.5Z" fill="#0F1111"/>
</svg>
