<?xml version="1.0" encoding="iso-8859-1"?>
<svg width="20" height="20" viewBox="0 0 20 20" fill="none" xmlns="http://www.w3.org/2000/svg">
<g clip-path="url(#clip0_0_578)">
<path fill-rule="evenodd" clip-rule="evenodd" d="M5.1875 6.07782C5.44321 6.02661 5.70623 6 5.97346 6H7.1875V15.75H3.5C2.39543 15.75 1.5 14.8546 1.5 13.75V11.0435C1.5 10.4735 1.62185 9.91001 1.85738 9.39088L2.33084 8.34733C2.86893 7.16133 3.9413 6.3274 5.1875 6.07782ZM5.1875 13.75L3.5 13.75V11.0435C3.5 10.7585 3.56092 10.4768 3.67869 10.2172L4.15215 9.17366C4.36259 8.70985 4.73645 8.35372 5.1875 8.16086V13.75Z" fill="#0F1111"/>
<path fill-rule="evenodd" clip-rule="evenodd" d="M13.5 16.375C13.5 15.2704 14.3954 14.375 15.5 14.375C16.6046 14.375 17.5 15.2704 17.5 16.375C17.5 17.4796 16.6046 18.375 15.5 18.375C14.3954 18.375 13.5 17.4796 13.5 16.375Z" fill="#0F1111"/>
<path fill-rule="evenodd" clip-rule="evenodd" d="M3.5625 16.375C3.5625 15.2704 4.45793 14.375 5.5625 14.375C6.66707 14.375 7.5625 15.2704 7.5625 16.375C7.5625 17.4796 6.66707 18.375 5.5625 18.375C4.45793 18.375 3.5625 17.4796 3.5625 16.375Z" fill="#0F1111"/>
<path fill-rule="evenodd" clip-rule="evenodd" d="M5.5 5C5.5 3.89543 6.39543 3 7.5 3H14.5C16.7091 3 18.5 4.79086 18.5 7V16H5.5V5ZM14.5 5L7.5 5V14H16.5V7C16.5 5.89543 15.6046 5 14.5 5Z" fill="#0F1111"/>
<path fill-rule="evenodd" clip-rule="evenodd" d="M12.6991 9.95099C12.6991 10.4332 12.7096 10.8345 12.4641 11.2629C12.2651 11.6121 11.9475 11.8265 11.5952 11.8265C11.113 11.8265 10.8318 11.4642 10.8318 10.9286C10.8318 9.87387 11.7908 9.68234 12.6991 9.68234V9.95099ZM14.9336 11.8202C14.7037 11.507 14.4603 11.2519 14.4603 10.6722V8.74377C14.4603 7.92805 14.5187 7.17802 13.9073 6.61528C13.4263 6.16018 12.6282 6 12.0172 6C10.8236 6 9.48988 6.43858 9.21086 7.89458C9.18122 8.0484 9.29512 8.12933 9.39758 8.15179L10.6145 8.28231C10.7284 8.2768 10.8105 8.16662 10.8321 8.05518C10.9375 7.55346 11.363 7.31108 11.8415 7.31108C12.0998 7.31108 12.3928 7.40557 12.546 7.6327C12.7218 7.88737 12.6989 8.23739 12.6989 8.53105V8.69165C11.9706 8.77173 11.0188 8.82597 10.3388 9.11921C9.55212 9.45397 9 10.1387 9 11.1435C9 12.4291 9.82184 13.0711 10.8791 13.0711C11.7708 13.0711 12.2585 12.8643 12.9474 12.1723C13.1757 12.4969 13.2514 12.6554 13.6672 12.9969C13.7612 13.0473 13.8811 13.041 13.964 12.9677L13.9666 12.9719C14.2172 12.752 14.6728 12.3605 14.929 12.149C15.0319 12.0668 15.0137 11.9329 14.9336 11.8202Z" fill="#0F1111"/>
</g>
<defs>
<clipPath id="clip0_0_578">
<rect width="17" height="16" fill="white" transform="translate(1.5 3)"/>
</clipPath>
</defs>
</svg>
