<?xml version="1.0" encoding="iso-8859-1"?>
<svg width="20" height="20" viewBox="0 0 20 20" fill="none" xmlns="http://www.w3.org/2000/svg">
<g clip-path="url(#clip0_0_536)">
<g clip-path="url(#clip1_0_536)">
<path fill-rule="evenodd" clip-rule="evenodd" d="M5.1875 5.70282C5.44321 5.65161 5.70623 5.625 5.97346 5.625H7.1875V15.375H3.5C2.39543 15.375 1.5 14.4796 1.5 13.375V10.6685C1.5 10.0985 1.62185 9.53501 1.85738 9.01588L2.33084 7.97233C2.86893 6.78633 3.9413 5.9524 5.1875 5.70282ZM5.1875 13.375L3.5 13.375V10.6685C3.5 10.3835 3.56092 10.1018 3.67869 9.84221L4.15215 8.79867C4.36259 8.33485 4.73645 7.97872 5.1875 7.78586V13.375Z" fill="#0F1111"/>
<path fill-rule="evenodd" clip-rule="evenodd" d="M16.5625 13.375V7C16.5625 5.89543 15.6671 5 14.5625 5H7.5625L7.5625 13.375H16.5625ZM16.5625 15.375C17.6671 15.375 18.5625 14.4796 18.5625 13.375V7C18.5625 4.79086 16.7716 3 14.5625 3H7.5625C6.45793 3 5.5625 3.89543 5.5625 5V15.375H16.5625Z" fill="#0F1111"/>
<path fill-rule="evenodd" clip-rule="evenodd" d="M13.5 15.5625C13.5 14.4579 14.3954 13.5625 15.5 13.5625C16.6046 13.5625 17.5 14.4579 17.5 15.5625C17.5 16.6671 16.6046 17.5625 15.5 17.5625C14.3954 17.5625 13.5 16.6671 13.5 15.5625Z" fill="#0F1111"/>
<path fill-rule="evenodd" clip-rule="evenodd" d="M3.5625 15.5625C3.5625 14.4579 4.45793 13.5625 5.5625 13.5625C6.66707 13.5625 7.5625 14.4579 7.5625 15.5625C7.5625 16.6671 6.66707 17.5625 5.5625 17.5625C4.45793 17.5625 3.5625 16.6671 3.5625 15.5625Z" fill="#0F1111"/>
</g>
</g>
<defs>
<clipPath id="clip0_0_536">
<rect width="20" height="20" fill="white"/>
</clipPath>
<clipPath id="clip1_0_536">
<rect width="17" height="15" fill="white" transform="translate(1.5 3)"/>
</clipPath>
</defs>
</svg>
